<svg id="Layer_1" data-name="Layer 1" xmlns="http://www.w3.org/2000/svg" viewBox="0 0 1921.3 441.8"><defs><style>.cls-1{fill:red;}.cls-2{font-size:390px;font-family:YouTube-Sans-Medium, YouTube Sans;font-weight:500;letter-spacing:-0.05em;}.cls-2,.cls-5{fill:#fff;}.cls-3{letter-spacing:-0.1em;}.cls-4{letter-spacing:-0.11em;}</style></defs><path class="cls-1" d="M319.9,423.3,194.2,421c-40.7-.8-81.5.8-121.4-7.5-60.7-12.4-65-73.2-69.5-124.2A871.3,871.3,0,0,1,11.2,73.5C17.8,33.6,43.8,9.8,84,7.2,219.7-2.2,356.3-1.1,491.7,3.3c14.3.4,28.7,2.6,42.8,5.1,69.6,12.2,71.3,81.1,75.8,139.1a788.5,788.5,0,0,1-6,175.7c-6.9,48.2-20.1,88.6-75.8,92.5-69.8,5.1-138,9.2-208,7.9C320.5,423.3,320.1,423.3,319.9,423.3ZM246,301.3l156.5-89.9L246,121.5Z" transform="translate(0 0)"/><text class="cls-2" transform="translate(697.1 339.2)">Su<tspan class="cls-3" x="348.3" y="0">p</tspan><tspan class="cls-4" x="517.5" y="0">T</tspan><tspan x="663.4" y="0">ube</tspan></text><polygon class="cls-5" points="246 121.5 402.5 211.4 246 301.3 246 121.5"/></svg>