<svg id="Layer_1" data-name="Layer 1" xmlns="http://www.w3.org/2000/svg" viewBox="0 0 1904.2 423.8"><defs><style>.cls-1{fill:red;}.cls-2{fill:#fff;}</style></defs><path class="cls-1" d="M319.9,423.3,194.2,421c-40.7-.8-81.5.8-121.4-7.5-60.7-12.4-65-73.2-69.5-124.2A871.3,871.3,0,0,1,11.2,73.5C17.8,33.6,43.8,9.8,84,7.2,219.7-2.2,356.3-1.1,491.7,3.3c14.3.4,28.7,2.6,42.8,5.1,69.6,12.2,71.3,81.1,75.8,139.1a788.5,788.5,0,0,1-6,175.7c-6.9,48.2-20.1,88.6-75.8,92.5-69.8,5.1-138,9.2-208,7.9C320.5,423.3,320.1,423.3,319.9,423.3ZM246,301.3l156.5-89.9L246,121.5Z" transform="translate(0 0)"/><path class="cls-2" d="M720.5,276.5q33.2,24.9,70.2,24.9c27.6,0,41.3-9.5,41.3-28.5,0-10.3-5.8-18.8-17.5-25.3-5.5-3.1-15.9-7.5-31.2-13.3-6.2-2-12-4.1-17.2-6.2-10.4-4.4-18.3-8.4-23.8-12.1q-29.2-18.3-29.2-51.9,0-31.2,22.8-50.5c15.2-12.8,35.2-19.3,59.9-19.3A132.7,132.7,0,0,1,864,112.7l-11.3,37.8c-22.9-9.9-42.6-14.8-59.3-14.8-23.6,0-35.5,8.9-35.5,26.9a20.2,20.2,0,0,0,7.8,16.2q7.8,6.4,29.7,15l8.6,3.1q29.6,11.7,42.5,19.5,31.2,19,31.2,54.6,0,33.2-23.6,52.5c-15.7,12.8-37.1,19.3-64.2,19.3a145.4,145.4,0,0,1-44.6-7.1c-14.7-4.6-27.1-11-37.3-19.1Z" transform="translate(0 0)"/><path class="cls-2" d="M888.6,144.2h42.9V258.1q0,44.8,36.3,44.9t36.2-44.9V144.2h42.9V258.1q0,84.6-79.5,84.7t-78.8-84.7Z" transform="translate(0 0)"/><path class="cls-2" d="M1104.7,163.7c8.5-8.5,17.1-14.5,25.7-17.9s19.4-5.1,32.4-5.1q37.8,0,58.5,26c13.7,17.3,20.6,41.6,20.6,73.1q0,49.5-21.6,76.2c-14.4,17.9-35.1,26.8-61.8,26.8q-27.7,0-49.2-18.8v86.2h-42.5v-266h37.9Zm49.5,139.7c15.3,0,26.6-4.8,33.7-14.5s10.7-24.8,10.7-45.6-3.5-37.5-10.7-47.8-18.3-15.4-33.3-15.4c-30.4,0-45.7,20.8-45.7,62.4S1124,303.4,1154.2,303.4Z" transform="translate(0 0)"/><path class="cls-2" d="M1328.9,136.8V339.2h-44.1V136.8h-62.4v-39h174l-10.9,39Z" transform="translate(0 0)"/><path class="cls-2" d="M1378.8,144.2h42.9V258.1q0,44.8,36.3,44.9t36.3-44.9V144.2h42.9V258.1q0,84.6-79.6,84.7t-78.8-84.7Z" transform="translate(0 0)"/><path class="cls-2" d="M1601.1,161.4c8.1-7.5,16.1-12.9,24-16s17.9-4.7,29.8-4.7q37.9,0,58.5,26c13.8,17.3,20.7,41.6,20.7,73.1q0,49.5-21.6,76.2t-61.9,26.8q-30,0-53.8-21.5v17.9H1559V72.5h42.1Zm45.3,142c15.3,0,26.5-4.8,33.7-14.5s10.7-24.8,10.7-45.6-3.6-37.5-10.7-47.8-18.3-15.4-33.4-15.4q-45.6,0-45.6,62.4c0,20.8,3.7,36.2,10.9,46S1630.8,303.4,1646.4,303.4Z" transform="translate(0 0)"/><path class="cls-2" d="M1902.6,258.5H1786q5.9,45.3,49.5,45.3c15.6,0,30-5.5,43.3-16.4L1901,317q-28.1,25.8-69,25.8t-66.1-26.4q-24-26.2-24-72.3t23-75.3q22.9-28.1,62-28.1,44.1,0,64,34.4,13.2,22.5,13.2,61.2A212,212,0,0,1,1902.6,258.5ZM1786,223.4h76c0-14.3-3-24.9-8.9-32s-15.4-11.7-27.3-11.7C1803.1,179.7,1789.9,194.3,1786,223.4Z" transform="translate(0 0)"/><polygon class="cls-2" points="246 121.5 402.5 211.4 246 301.3 246 121.5"/></svg>