<svg xmlns="http://www.w3.org/2000/svg" viewBox="0 0 1767.2 185"><defs><style>.cls-1{fill:#fff;}.cls-2{fill:#ed1c24;}</style></defs><g id="Layer_1" data-name="Layer 1"><path class="cls-1" d="M599.6,239.7v2.8c0,26.7-12,57.5-93.7,57.5H489.2c-79.8,0-93.9-30.7-95.6-52.8h61.5c3.1,7.1,18.2,15,42.8,15h5.2c33.6,0,38.1-9.5,38.1-18.1s-5.4-15.3-33.9-16l-34.1-.7c-60.4-1.9-77.8-24.8-77.8-51.5v-2.1c0-28.6,16.7-51.8,90.3-51.8h19.2c72.8,0,89.1,23.5,91.4,46H534.1c-4.2-5-13.1-9.3-32.9-9.3h-5.9c-29.5,0-42.1,5.8-42.1,14.2s5.8,14.1,32,14.8l34.8.7C584.3,190.3,599.6,210.5,599.6,239.7Z" transform="translate(-70.9 -118.9)"/><path class="cls-1" d="M609,209.8V124.9h55.2v84.2c0,19.5,6,45.3,47.5,45.3h1.2c41.5,0,46.9-25.8,46.9-45.3V124.9H815v84.9c0,34.4-10.9,90.3-99.3,90.3H709C617.1,300.1,609,243.9,609,209.8Z" transform="translate(-70.9 -118.9)"/><path class="cls-1" d="M830.3,124.9H951.9c59.4,0,76.3,23.9,76.3,57.8v2.8c0,33.6-17.4,58.7-76.3,58.7H885.7v53.3H830.3Zm116.9,78c17.4,0,23.5-7.2,23.5-18.1v-.7c0-10.2-6.1-17.7-23.5-17.7H885.7v36.5Z" transform="translate(-70.9 -118.9)"/><path class="cls-1" d="M1027.4,168.5V124.9h206v43.6H1158V297.6h-55.2V168.5Z" transform="translate(-70.9 -118.9)"/><path class="cls-1" d="M1237.6,209.8V124.9h55.2v84.2c0,19.5,6,45.3,47.6,45.3h1.1c41.6,0,46.9-25.8,46.9-45.3V124.9h55.2v84.9c0,34.4-10.9,90.3-99.3,90.3h-6.7C1245.7,300.1,1237.6,243.9,1237.6,209.8Z" transform="translate(-70.9 -118.9)"/><path class="cls-1" d="M1639.5,211.2c9.9,6.6,17.3,17.2,17.3,33.7v2.3c0,26-15.8,50.3-71.7,50.3H1458.9V124.9h126.2c55.9,0,71.7,24.4,71.7,50.4v2.3C1656.8,194.1,1649.4,204.6,1639.5,211.2Zm-125.2-15.5h62.2c16.7,0,20.4-6.5,20.4-14.2v-.9c0-7.4-3.7-15.6-20.4-15.6h-62.2Zm82.6,45.2c0-7.6-3.7-14.1-20.4-14.1h-62.2v30.6h62.2c16.7,0,20.4-8.1,20.4-15.5Z" transform="translate(-70.9 -118.9)"/><path class="cls-1" d="M1836.7,164.6H1726.3v25h111.2v41.1H1726.3v26.7h111.8v40.1H1671.3V124.9h165.4Z" transform="translate(-70.9 -118.9)"/></g><g id="Layer_3" data-name="Layer 3"><g id="Layer_1-2" data-name="Layer 1"><rect class="cls-2" width="269.3" height="185" rx="49"/></g><g id="Layer_5" data-name="Layer 5"><path class="cls-1" d="M201.8,159.5l-29.6,53.3c-1.4,2.5-.3,6.5,1.9,6.5l26.3-.2-28.2,50.8h27.7c3.5,0,6.9-2.4,9.2-6.6L239,209.8c1.4-2.5.3-6.4-1.9-6.4H209.3l27.8-50.5H211C207.5,152.9,204.1,155.3,201.8,159.5Z" transform="translate(-70.9 -118.9)"/></g></g></svg>